<svg  viewBox="0 0 24 25" fill="none" xmlns="http://www.w3.org/2000/svg">
<path d="M12 7.5C12.4142 7.5 12.75 7.83579 12.75 8.25V11.75H16.25C16.6642 11.75 17 12.0858 17 12.5C17 12.9142 16.6642 13.25 16.25 13.25H12.75V16.75C12.75 17.1642 12.4142 17.5 12 17.5C11.5858 17.5 11.25 17.1642 11.25 16.75V13.25H7.75C7.33579 13.25 7 12.9142 7 12.5C7 12.0858 7.33579 11.75 7.75 11.75H11.25V8.25C11.25 7.83579 11.5858 7.5 12 7.5ZM3 6.75C3 4.95507 4.45507 3.5 6.25 3.5H17.75C19.5449 3.5 21 4.95507 21 6.75V18.25C21 20.0449 19.5449 21.5 17.75 21.5H6.25C4.45507 21.5 3 20.0449 3 18.25V6.75ZM6.25 5C5.2835 5 4.5 5.7835 4.5 6.75V18.25C4.5 19.2165 5.2835 20 6.25 20H17.75C18.7165 20 19.5 19.2165 19.5 18.25V6.75C19.5 5.7835 18.7165 5 17.75 5H6.25Z" fill="currentColor"/>
</svg>
