<svg  viewBox="0 0 28 14" fill="none" xmlns="http://www.w3.org/2000/svg">
<path opacity="0.35" fill-rule="evenodd" clip-rule="evenodd" d="M18.7 1.6001H6.69995C5.66069 1.6001 4.9325 1.60066 4.36202 1.64048C3.80081 1.67966 3.4674 1.75328 3.20931 1.86296C2.42301 2.19709 1.79695 2.82316 1.46281 3.60945C1.35313 3.86755 1.27951 4.20096 1.24034 4.76216C1.20052 5.33264 1.19995 6.06084 1.19995 7.1001C1.19995 8.13936 1.20052 8.86755 1.24034 9.43803C1.27951 9.99924 1.35313 10.3326 1.46281 10.5907C1.79695 11.377 2.42301 12.0031 3.20931 12.3372C3.4674 12.4469 3.80081 12.5205 4.36202 12.5597C4.9325 12.5995 5.66069 12.6001 6.69995 12.6001H18.7C19.7392 12.6001 20.4674 12.5995 21.0379 12.5597C21.5991 12.5205 21.9325 12.4469 22.1906 12.3372C22.9769 12.0031 23.603 11.377 23.9371 10.5907C24.0468 10.3326 24.1204 9.99924 24.1596 9.43803C24.1994 8.86755 24.2 8.13936 24.2 7.1001C24.2 6.06084 24.1994 5.33264 24.1596 4.76216C24.1204 4.20096 24.0468 3.86755 23.9371 3.60945C23.603 2.82316 22.9769 2.19709 22.1906 1.86296C21.9325 1.75328 21.5991 1.67966 21.0379 1.64048C20.4674 1.60066 19.7392 1.6001 18.7 1.6001ZM0.542462 3.21835C0.199951 4.02434 0.199951 5.0496 0.199951 7.1001C0.199951 9.1506 0.199951 10.1759 0.542462 10.9818C0.977856 12.0064 1.79364 12.8222 2.8182 13.2576C3.6242 13.6001 4.64945 13.6001 6.69995 13.6001H18.7C20.7505 13.6001 21.7757 13.6001 22.5817 13.2576C23.6063 12.8222 24.422 12.0064 24.8574 10.9818C25.2 10.1759 25.2 9.1506 25.2 7.1001C25.2 5.0496 25.2 4.02434 24.8574 3.21835C24.422 2.19378 23.6063 1.378 22.5817 0.942609C21.7757 0.600098 20.7505 0.600098 18.7 0.600098H6.69995C4.64945 0.600098 3.6242 0.600098 2.8182 0.942609C1.79364 1.378 0.977856 2.19378 0.542462 3.21835Z" fill="black"/>
<path opacity="0.4" d="M26.1003 5.2666V9.2666C26.9051 8.92782 27.4284 8.13973 27.4284 7.2666C27.4284 6.39347 26.9051 5.60538 26.1003 5.2666Z" fill="black"/>
<path d="M2 6.6001C2 5.19997 2 4.4999 2.27248 3.96512C2.51217 3.49472 2.89462 3.11226 3.36502 2.87258C3.8998 2.6001 4.59987 2.6001 6 2.6001H19C20.4001 2.6001 21.1002 2.6001 21.635 2.87258C22.1054 3.11226 22.4878 3.49472 22.7275 3.96512C23 4.4999 23 5.19997 23 6.6001V7.6001C23 9.00023 23 9.70029 22.7275 10.2351C22.4878 10.7055 22.1054 11.0879 21.635 11.3276C21.1002 11.6001 20.4001 11.6001 19 11.6001H6C4.59987 11.6001 3.8998 11.6001 3.36502 11.3276C2.89462 11.0879 2.51217 10.7055 2.27248 10.2351C2 9.70029 2 9.00023 2 7.6001V6.6001Z" fill="black"/>
</svg>
