<svg viewBox="0 0 18 13" fill="none" xmlns="http://www.w3.org/2000/svg">
<path fill-rule="evenodd" clip-rule="evenodd" d="M9.27126 2.62056C11.7584 2.62066 14.1504 3.52567 15.9529 5.14853C16.0886 5.27382 16.3056 5.27224 16.4393 5.14499L17.7368 3.90492C17.8044 3.84038 17.8422 3.75295 17.8416 3.66198C17.8411 3.57102 17.8022 3.48402 17.7338 3.42023C13.0027 -0.873475 5.53902 -0.873475 0.808007 3.42023C0.739475 3.48397 0.700591 3.57095 0.699959 3.66191C0.699327 3.75288 0.737 3.84033 0.80464 3.90492L2.10251 5.14499C2.2361 5.27243 2.45323 5.27401 2.58888 5.14853C4.39162 3.52556 6.7839 2.62055 9.27126 2.62056ZM9.26986 6.76267C10.6272 6.76259 11.9361 7.26485 12.9422 8.17187C13.0783 8.30059 13.2926 8.2978 13.4253 8.16558L14.7126 6.8707C14.7804 6.80278 14.818 6.71064 14.817 6.6149C14.816 6.51915 14.7765 6.42779 14.7074 6.36126C11.6435 3.52395 6.89879 3.52395 3.83495 6.36126C3.76575 6.42779 3.72626 6.5192 3.72535 6.61497C3.72444 6.71075 3.76219 6.80288 3.83012 6.8707L5.11703 8.16558C5.24969 8.2978 5.46405 8.30059 5.60014 8.17187C6.60559 7.26545 7.91344 6.76323 9.26986 6.76267ZM11.7916 9.5045C11.7935 9.6079 11.7564 9.70759 11.6891 9.78003L9.51246 12.1893C9.44865 12.2601 9.36166 12.3 9.27089 12.3C9.18012 12.3 9.09312 12.2601 9.02932 12.1893L6.85229 9.78003C6.78504 9.70753 6.74804 9.60781 6.75003 9.50441C6.75203 9.40101 6.79284 9.3031 6.86282 9.23379C8.25292 7.94423 10.2888 7.94423 11.679 9.23379C11.7489 9.30315 11.7896 9.4011 11.7916 9.5045Z" fill="black"/>
</svg>
